<mxfile modified="2023-06-10T20:58:10.475Z" host="Electron" agent="Mozilla/5.0 (Windows NT 10.0; Win64; x64) AppleWebKit/537.36 (KHTML, like Gecko) draw.io/21.3.7 Chrome/112.0.5615.204 Electron/24.5.0 Safari/537.36" etag="6OUOfK3ShXe7q93-x4lA" version="21.3.7" type="device">
  <diagram id="BdEceKbEjsu_7rm1SCF-" name="momo-store">
    <mxGraphModel dx="1098" dy="820" grid="1" gridSize="10" guides="1" tooltips="1" connect="1" arrows="1" fold="1" page="1" pageScale="1" pageWidth="1169" pageHeight="827" math="0" shadow="0">
      <root>
        <mxCell id="0" />
        <mxCell id="1" parent="0" />
        <mxCell id="L9QmU6_LyMm88Nkz07rQ-2" value="" style="rounded=1;whiteSpace=wrap;html=1;shadow=0;glass=0;sketch=0;fontSize=16;arcSize=42;absoluteArcSize=1;fillColor=#cce5ff;strokeColor=none;" parent="1" vertex="1">
          <mxGeometry x="50" y="44" width="1050" height="646" as="geometry" />
        </mxCell>
        <mxCell id="L9QmU6_LyMm88Nkz07rQ-4" value="&lt;font style=&quot;font-size: 22px;&quot;&gt;Yandex.Cloud&lt;/font&gt;" style="text;strokeColor=none;align=center;fillColor=none;html=1;verticalAlign=middle;whiteSpace=wrap;rounded=0;fontFamily=Helvetica;fontStyle=1;fontSize=20;fontColor=#000000;" parent="1" vertex="1">
          <mxGeometry x="511.99999999999994" y="60" width="145.4" height="30" as="geometry" />
        </mxCell>
        <mxCell id="vrlXvW0k0yc2Gl-SN5Lx-1" value="" style="rounded=1;whiteSpace=wrap;html=1;shadow=0;glass=0;sketch=0;fontSize=16;arcSize=70;absoluteArcSize=1;fillColor=none;strokeColor=#ff5958;strokeWidth=3;" parent="1" vertex="1">
          <mxGeometry x="80" y="104" width="240" height="260" as="geometry" />
        </mxCell>
        <mxCell id="vrlXvW0k0yc2Gl-SN5Lx-2" value="" style="rounded=1;whiteSpace=wrap;html=1;shadow=0;glass=0;sketch=0;fontSize=16;arcSize=10;absoluteArcSize=1;fillColor=none;strokeColor=#5282ff;strokeWidth=3;" parent="1" vertex="1">
          <mxGeometry x="110" y="154" width="180" height="190" as="geometry" />
        </mxCell>
        <mxCell id="vrlXvW0k0yc2Gl-SN5Lx-3" value="&lt;font style=&quot;font-size: 22px;&quot;&gt;default cloud&lt;/font&gt;" style="text;strokeColor=none;align=center;fillColor=none;html=1;verticalAlign=middle;whiteSpace=wrap;rounded=0;fontFamily=Helvetica;fontStyle=1;fontSize=20;" parent="1" vertex="1">
          <mxGeometry x="73.65" y="114" width="252.7" height="30" as="geometry" />
        </mxCell>
        <mxCell id="vrlXvW0k0yc2Gl-SN5Lx-5" value="&lt;font style=&quot;font-size: 16px;&quot;&gt;default folder,&lt;br&gt;billing account,&lt;br&gt;OAuth-token&lt;br&gt;&lt;/font&gt;" style="text;align=center;html=1;verticalAlign=middle;whiteSpace=wrap;rounded=0;fontFamily=Helvetica;fontStyle=1;fontSize=20;" parent="1" vertex="1">
          <mxGeometry x="127.3" y="184" width="145.4" height="30" as="geometry" />
        </mxCell>
        <mxCell id="vrlXvW0k0yc2Gl-SN5Lx-6" value="&lt;span style=&quot;white-space: pre;&quot;&gt;&#x9;&lt;/span&gt;" style="rounded=1;whiteSpace=wrap;html=1;shadow=0;glass=0;sketch=0;fontSize=16;arcSize=70;absoluteArcSize=1;fillColor=none;strokeColor=#ff5958;strokeWidth=3;" parent="1" vertex="1">
          <mxGeometry x="80" y="380" width="240" height="270" as="geometry" />
        </mxCell>
        <mxCell id="vrlXvW0k0yc2Gl-SN5Lx-8" value="&lt;span style=&quot;font-size: 22px;&quot;&gt;organization cloud&lt;/span&gt;" style="text;strokeColor=none;align=center;fillColor=none;html=1;verticalAlign=middle;whiteSpace=wrap;rounded=0;fontFamily=Helvetica;fontStyle=1;fontSize=20;" parent="1" vertex="1">
          <mxGeometry x="98.65" y="610" width="202.7" height="30" as="geometry" />
        </mxCell>
        <mxCell id="vrlXvW0k0yc2Gl-SN5Lx-12" value="&lt;span style=&quot;white-space: pre;&quot;&gt;&#x9;&lt;/span&gt;" style="rounded=1;whiteSpace=wrap;html=1;shadow=0;glass=0;sketch=0;fontSize=16;arcSize=70;absoluteArcSize=1;fillColor=none;strokeColor=#ff5958;strokeWidth=3;" parent="1" vertex="1">
          <mxGeometry x="370" y="104" width="680" height="546" as="geometry" />
        </mxCell>
        <mxCell id="vrlXvW0k0yc2Gl-SN5Lx-13" value="&lt;span style=&quot;font-size: 22px;&quot;&gt;otus-kuber cloud&lt;/span&gt;" style="text;strokeColor=none;align=center;fillColor=none;html=1;verticalAlign=middle;whiteSpace=wrap;rounded=0;fontFamily=Helvetica;fontStyle=1;fontSize=20;" parent="1" vertex="1">
          <mxGeometry x="588.65" y="114" width="242.7" height="30" as="geometry" />
        </mxCell>
        <mxCell id="vrlXvW0k0yc2Gl-SN5Lx-18" value="" style="rounded=1;whiteSpace=wrap;html=1;shadow=0;glass=0;sketch=0;fontSize=16;arcSize=10;absoluteArcSize=1;fillColor=none;strokeColor=#5282ff;strokeWidth=3;" parent="1" vertex="1">
          <mxGeometry x="400" y="154" width="620" height="190" as="geometry" />
        </mxCell>
        <mxCell id="vrlXvW0k0yc2Gl-SN5Lx-29" value="&lt;font style=&quot;font-size: 16px;&quot;&gt;dev-folder&lt;br&gt;&lt;br&gt;&lt;/font&gt;" style="text;strokeColor=none;align=center;fillColor=none;html=1;verticalAlign=middle;whiteSpace=wrap;rounded=0;fontFamily=Helvetica;fontStyle=1;fontSize=20;" parent="1" vertex="1">
          <mxGeometry x="622.3" y="180" width="145.4" height="10" as="geometry" />
        </mxCell>
        <mxCell id="yXOFJZuUZOe33iJz4g4m-4" value="Kubernetes &#xa;Cluster" style="shape=image;verticalLabelPosition=bottom;verticalAlign=top;imageAspect=0;aspect=fixed;image=data:image/svg+xml,PHN2ZyB4bWxucz0iaHR0cDovL3d3dy53My5vcmcvMjAwMC9zdmciIHdpZHRoPSIzMiIgaGVpZ2h0PSIzMiIgdmlld0JveD0iMCAwIDMyIDMyIiBmaWxsPSJub25lIj4mI3hhOzxwYXRoIGQ9Ik0wIDE2QzAgNy4xNjM0NCA3LjE2MzQ0IDAgMTYgMFYwQzI0LjgzNjYgMCAzMiA3LjE2MzQ0IDMyIDE2VjE2QzMyIDI0LjgzNjYgMjQuODM2NiAzMiAxNiAzMlYzMkM3LjE2MzQ0IDMyIDAgMjQuODM2NiAwIDE2VjE2WiIgZmlsbD0iIzUyODJGRiIvPiYjeGE7PHBhdGggZD0iTTExLjk5NSAyNEw3LjAwMDk4IDE3LjczOEw4Ljc4MTk4IDkuOTI3TDE2IDYuNDUzTDIzLjIxOCA5LjkyOEwyNC45OTkgMTcuNzM5TDIwLjAwNSAyNEgxMS45OTVaTTIwIDEzLjE5NkwxNS45OTkgMTAuODk5TDEyIDEzLjE5NlYxOC4xTDE2IDIwLjQwMUwyMCAxOC4xVjEzLjE5NlpNMTguNzggMTMuODk2SDE4Ljc4N0wxNiAxNS40OTlMMTMuMjE0IDEzLjg5NUgxMy4yMTlMMTUuOTk5IDEyLjI5OUwxOC43OCAxMy44OTZaIiBmaWxsPSJ3aGl0ZSIvPiYjeGE7PC9zdmc+;dashed=1;strokeWidth=3;fontSize=15;fontColor=#000000;fontStyle=1" parent="1" vertex="1">
          <mxGeometry x="900" y="204" width="90" height="90" as="geometry" />
        </mxCell>
        <mxCell id="vrlXvW0k0yc2Gl-SN5Lx-39" value="SubnetÂ &#xa;192.168.10.0/24" style="shape=image;verticalLabelPosition=bottom;verticalAlign=top;imageAspect=0;aspect=fixed;image=data:image/svg+xml,PHN2ZyB4bWxucz0iaHR0cDovL3d3dy53My5vcmcvMjAwMC9zdmciIHdpZHRoPSIzMiIgaGVpZ2h0PSIzMiIgdmlld0JveD0iMCAwIDMyIDMyIiBmaWxsPSJub25lIj4mI3hhOzxwYXRoIGQ9Ik0wIDE2QzAgNy4xNjM0NCA3LjE2MzQ0IDAgMTYgMFYwQzI0LjgzNjYgMCAzMiA3LjE2MzQ0IDMyIDE2VjE2QzMyIDI0LjgzNjYgMjQuODM2NiAzMiAxNiAzMlYzMkM3LjE2MzQ0IDMyIDAgMjQuODM2NiAwIDE2VjE2WiIgZmlsbD0iIzUyODJGRiIvPiYjeGE7PHBhdGggZD0iTTI0IDExQzI0IDkuOSAyMy4xIDkgMjIgOUMyMC45IDkgMjAgOS45IDIwIDExQzIwIDExLjcgMjAuNCAxMi40IDIxIDEyLjdWMTVIMTdWMTIuN0MxNy42IDEyLjMgMTggMTEuNyAxOCAxMUMxOCA5LjkgMTcuMSA5IDE2IDlDMTQuOSA5IDE0IDkuOSAxNCAxMUMxNCAxMS43IDE0LjQgMTIuNCAxNSAxMi43VjE1SDExVjEyLjdDMTEuNiAxMi4zIDEyIDExLjcgMTIgMTFDMTIgOS45IDExLjEgOSAxMCA5QzguOSA5IDggOS45IDggMTFDOCAxMS43IDguNCAxMi40IDkgMTIuN1YxNUM5IDE2LjEgOS45IDE3IDExIDE3SDEyVjE5LjNDMTEuNCAxOS43IDExIDIwLjMgMTEgMjFDMTEgMjIuMSAxMS45IDIzIDEzIDIzQzE0LjEgMjMgMTUgMjIuMSAxNSAyMUMxNSAyMC4zIDE0LjYgMTkuNiAxNCAxOS4zVjE3SDE4VjE5LjNDMTcuNCAxOS43IDE3IDIwLjMgMTcgMjFDMTcgMjIuMSAxNy45IDIzIDE5IDIzQzIwLjEgMjMgMjEgMjIuMSAyMSAyMUMyMSAyMC4zIDIwLjYgMTkuNiAyMCAxOS4zVjE3SDIxQzIyLjEgMTcgMjMgMTYuMSAyMyAxNVYxMi43QzIzLjYgMTIuNCAyNCAxMS43IDI0IDExWiIgZmlsbD0id2hpdGUiLz4mI3hhOzwvc3ZnPg==;strokeWidth=3;fontSize=15;fontStyle=1" parent="1" vertex="1">
          <mxGeometry x="780" y="204" width="90" height="90" as="geometry" />
        </mxCell>
        <mxCell id="vrlXvW0k0yc2Gl-SN5Lx-20" value="DevOps1 &#xa;Instance" style="shape=image;verticalLabelPosition=bottom;verticalAlign=top;imageAspect=0;aspect=fixed;image=data:image/svg+xml,PHN2ZyB4bWxucz0iaHR0cDovL3d3dy53My5vcmcvMjAwMC9zdmciIHdpZHRoPSIzNiIgaGVpZ2h0PSIzNiIgdmlld0JveD0iMCAwIDM2IDM2IiBmaWxsPSJub25lIj4mI3hhOzxwYXRoIGZpbGwtcnVsZT0iZXZlbm9kZCIgY2xpcC1ydWxlPSJldmVub2RkIiBkPSJNMTggMEMyNy45MzUgMCAzNiA4LjA2NSAzNiAxOEMzNiAyNy45MzUgMjcuOTM1IDM2IDE4IDM2QzguMDY1IDM2IDAgMjcuOTM1IDAgMThDMCA4LjA2NSA4LjA2NSAwIDE4IDBaIiBmaWxsPSIjNTI4MkZGIi8+JiN4YTs8cGF0aCBmaWxsLXJ1bGU9ImV2ZW5vZGQiIGNsaXAtcnVsZT0iZXZlbm9kZCIgZD0iTTE3LjQ4IDI1Ljg3M0wxMS41MjEgMjIuMzkxQzExLjIzNSAyMi4yMjQgMTEgMjEuODE4IDExIDIxLjQ4NFYxNC41MTRDMTEgMTQuNDU4IDExLjAwNSAxNC40MDIgMTEuMDE3IDE0LjM0NEwxNy41IDE3LjhMMTcuNDk5IDI1Ljg4NEMxNy40OTI1IDI1Ljg4MDMgMTcuNDg2MSAyNS44NzYzIDE3LjQ4IDI1Ljg3MlYyNS44NzNaTTE4LjUgMjUuODg1VjE3LjhMMjQuOTgxIDE0LjM0NEMyNC45OTMyIDE0LjM5OTkgMjQuOTk5NSAxNC40NTY4IDI1IDE0LjUxNFYyMS40ODRDMjUgMjEuODE4IDI0Ljc2NyAyMi4yMjYgMjQuNDggMjIuMzkyTDE4LjUyIDI1Ljg3MkwxOC41IDI1Ljg4NVpNMTcuOTk5IDE2LjkzNUwxMS42MzUgMTMuNTQxTDE3LjQ4IDEwLjEyNUMxNy43NjggOS45NTgwMSAxOC4yMzUgOS45NTgwMSAxOC41MjEgMTAuMTI1TDI0LjM2NCAxMy41NEwxNy45OTkgMTYuOTM1WiIgZmlsbD0id2hpdGUiLz4mI3hhOzwvc3ZnPg==;strokeWidth=3;fontSize=14;fontStyle=1" parent="1" vertex="1">
          <mxGeometry x="660" y="204" width="90" height="90" as="geometry" />
        </mxCell>
        <mxCell id="FpKIkP3KMFi05tkmSjkH-3" value="TF state for Dev" style="shape=image;verticalLabelPosition=bottom;verticalAlign=top;imageAspect=0;aspect=fixed;image=data:image/svg+xml,PHN2ZyB4bWxucz0iaHR0cDovL3d3dy53My5vcmcvMjAwMC9zdmciIHdpZHRoPSIzMiIgaGVpZ2h0PSIzMiIgdmlld0JveD0iMCAwIDMyIDMyIiBmaWxsPSJub25lIj4mI3hhOzxwYXRoIGQ9Ik0wIDE2QzAgNy4xNjM0NCA3LjE2MzQ0IDAgMTYgMFYwQzI0LjgzNjYgMCAzMiA3LjE2MzQ0IDMyIDE2VjE2QzMyIDI0LjgzNjYgMjQuODM2NiAzMiAxNiAzMlYzMkM3LjE2MzQ0IDMyIDAgMjQuODM2NiAwIDE2VjE2WiIgZmlsbD0iIzUyODJGRiIvPiYjeGE7PHBhdGggZmlsbC1ydWxlPSJldmVub2RkIiBjbGlwLXJ1bGU9ImV2ZW5vZGQiIGQ9Ik0yMiA4QzIyIDcuNCAyMS42IDcgMjEgN0gxMUMxMC40IDcgMTAgNy40IDEwIDhWMTBIMjJWOFpNMjMgMTJDMjMgMTEuNCAyMi42IDExIDIyIDExSDEwQzkuNCAxMSA5IDExLjQgOSAxMlYxNEgyM1YxMlpNOSAxNUgyM0MyMy41IDE1IDI0IDE1LjQgMjQgMTZWMjJDMjQgMjIuNiAyMy42IDIzIDIzIDIzSDlDOC40IDIzIDggMjIuNiA4IDIyVjE2QzggMTUuNCA4LjQgMTUgOSAxNVpNMTQgMjBIMThDMTguNSAyMCAxOSAxOS41IDE5IDE5QzE5IDE4LjQgMTguNiAxOCAxOCAxOEgxNEMxMy40IDE4IDEzIDE4LjQgMTMgMTlDMTMgMTkuNiAxMy40IDIwIDE0IDIwWiIgZmlsbD0id2hpdGUiLz4mI3hhOzwvc3ZnPg==;fontFamily=Helvetica;fontSize=14;fontStyle=1" vertex="1" parent="1">
          <mxGeometry x="445" y="204" width="90" height="90" as="geometry" />
        </mxCell>
        <mxCell id="L9QmU6_LyMm88Nkz07rQ-20" value="" style="endArrow=block;html=1;strokeWidth=3;arcSize=8;endFill=1;endSize=3;startSize=3;strokeColor=#313538;rounded=0;fontFamily=Helvetica;exitX=1;exitY=0.468;exitDx=0;exitDy=0;exitPerimeter=0;entryX=-0.017;entryY=0.468;entryDx=0;entryDy=0;entryPerimeter=0;" parent="1" edge="1" target="vrlXvW0k0yc2Gl-SN5Lx-16" source="vrlXvW0k0yc2Gl-SN5Lx-10">
          <mxGeometry width="50" height="50" relative="1" as="geometry">
            <mxPoint x="300" y="490" as="sourcePoint" />
            <mxPoint x="400" y="490" as="targetPoint" />
          </mxGeometry>
        </mxCell>
        <mxCell id="FpKIkP3KMFi05tkmSjkH-8" value="" style="group" vertex="1" connectable="0" parent="1">
          <mxGeometry x="400" y="400" width="180" height="190" as="geometry" />
        </mxCell>
        <mxCell id="vrlXvW0k0yc2Gl-SN5Lx-16" value="" style="rounded=1;whiteSpace=wrap;html=1;shadow=0;glass=0;sketch=0;fontSize=16;arcSize=10;absoluteArcSize=1;fillColor=none;strokeColor=#5282ff;strokeWidth=3;" parent="FpKIkP3KMFi05tkmSjkH-8" vertex="1">
          <mxGeometry width="180" height="190" as="geometry" />
        </mxCell>
        <mxCell id="vrlXvW0k0yc2Gl-SN5Lx-15" value="TF state for &#xa;Level 2 - Cloud" style="shape=image;verticalLabelPosition=bottom;verticalAlign=top;imageAspect=0;aspect=fixed;image=data:image/svg+xml,PHN2ZyB4bWxucz0iaHR0cDovL3d3dy53My5vcmcvMjAwMC9zdmciIHdpZHRoPSIzMiIgaGVpZ2h0PSIzMiIgdmlld0JveD0iMCAwIDMyIDMyIiBmaWxsPSJub25lIj4mI3hhOzxwYXRoIGQ9Ik0wIDE2QzAgNy4xNjM0NCA3LjE2MzQ0IDAgMTYgMFYwQzI0LjgzNjYgMCAzMiA3LjE2MzQ0IDMyIDE2VjE2QzMyIDI0LjgzNjYgMjQuODM2NiAzMiAxNiAzMlYzMkM3LjE2MzQ0IDMyIDAgMjQuODM2NiAwIDE2VjE2WiIgZmlsbD0iIzUyODJGRiIvPiYjeGE7PHBhdGggZmlsbC1ydWxlPSJldmVub2RkIiBjbGlwLXJ1bGU9ImV2ZW5vZGQiIGQ9Ik0yMiA4QzIyIDcuNCAyMS42IDcgMjEgN0gxMUMxMC40IDcgMTAgNy40IDEwIDhWMTBIMjJWOFpNMjMgMTJDMjMgMTEuNCAyMi42IDExIDIyIDExSDEwQzkuNCAxMSA5IDExLjQgOSAxMlYxNEgyM1YxMlpNOSAxNUgyM0MyMy41IDE1IDI0IDE1LjQgMjQgMTZWMjJDMjQgMjIuNiAyMy42IDIzIDIzIDIzSDlDOC40IDIzIDggMjIuNiA4IDIyVjE2QzggMTUuNCA4LjQgMTUgOSAxNVpNMTQgMjBIMThDMTguNSAyMCAxOSAxOS41IDE5IDE5QzE5IDE4LjQgMTguNiAxOCAxOCAxOEgxNEMxMy40IDE4IDEzIDE4LjQgMTMgMTlDMTMgMTkuNiAxMy40IDIwIDE0IDIwWiIgZmlsbD0id2hpdGUiLz4mI3hhOzwvc3ZnPg==;fontFamily=Helvetica;fontSize=14;fontStyle=1" parent="FpKIkP3KMFi05tkmSjkH-8" vertex="1">
          <mxGeometry x="40" y="50" width="90" height="90" as="geometry" />
        </mxCell>
        <mxCell id="vrlXvW0k0yc2Gl-SN5Lx-14" value="&lt;font style=&quot;font-size: 16px;&quot;&gt;adm-folder&lt;br&gt;&lt;br&gt;&lt;/font&gt;" style="text;strokeColor=none;align=center;fillColor=none;html=1;verticalAlign=middle;whiteSpace=wrap;rounded=0;fontFamily=Helvetica;fontStyle=1;fontSize=20;" parent="FpKIkP3KMFi05tkmSjkH-8" vertex="1">
          <mxGeometry x="12.299999999999955" y="20" width="145.4" height="30" as="geometry" />
        </mxCell>
        <mxCell id="FpKIkP3KMFi05tkmSjkH-10" value="" style="group" vertex="1" connectable="0" parent="1">
          <mxGeometry x="110" y="400" width="180.00000000000003" height="190" as="geometry" />
        </mxCell>
        <mxCell id="vrlXvW0k0yc2Gl-SN5Lx-10" value="" style="rounded=1;whiteSpace=wrap;html=1;shadow=0;glass=0;sketch=0;fontSize=16;arcSize=10;absoluteArcSize=1;fillColor=none;strokeColor=#5282ff;strokeWidth=3;" parent="FpKIkP3KMFi05tkmSjkH-10" vertex="1">
          <mxGeometry width="180" height="190" as="geometry" />
        </mxCell>
        <mxCell id="vrlXvW0k0yc2Gl-SN5Lx-11" value="&lt;font style=&quot;font-size: 16px;&quot;&gt;adm-folder&lt;br&gt;&lt;br&gt;&lt;/font&gt;" style="text;strokeColor=none;align=center;fillColor=none;html=1;verticalAlign=middle;whiteSpace=wrap;rounded=0;fontFamily=Helvetica;fontStyle=1;fontSize=20;" parent="FpKIkP3KMFi05tkmSjkH-10" vertex="1">
          <mxGeometry x="17.30000000000001" y="20" width="145.4" height="30" as="geometry" />
        </mxCell>
        <mxCell id="L9QmU6_LyMm88Nkz07rQ-24" value="TF state for &#xa;Level 1 - Organization" style="shape=image;verticalLabelPosition=bottom;verticalAlign=top;imageAspect=0;aspect=fixed;image=data:image/svg+xml,PHN2ZyB4bWxucz0iaHR0cDovL3d3dy53My5vcmcvMjAwMC9zdmciIHdpZHRoPSIzMiIgaGVpZ2h0PSIzMiIgdmlld0JveD0iMCAwIDMyIDMyIiBmaWxsPSJub25lIj4mI3hhOzxwYXRoIGQ9Ik0wIDE2QzAgNy4xNjM0NCA3LjE2MzQ0IDAgMTYgMFYwQzI0LjgzNjYgMCAzMiA3LjE2MzQ0IDMyIDE2VjE2QzMyIDI0LjgzNjYgMjQuODM2NiAzMiAxNiAzMlYzMkM3LjE2MzQ0IDMyIDAgMjQuODM2NiAwIDE2VjE2WiIgZmlsbD0iIzUyODJGRiIvPiYjeGE7PHBhdGggZmlsbC1ydWxlPSJldmVub2RkIiBjbGlwLXJ1bGU9ImV2ZW5vZGQiIGQ9Ik0yMiA4QzIyIDcuNCAyMS42IDcgMjEgN0gxMUMxMC40IDcgMTAgNy40IDEwIDhWMTBIMjJWOFpNMjMgMTJDMjMgMTEuNCAyMi42IDExIDIyIDExSDEwQzkuNCAxMSA5IDExLjQgOSAxMlYxNEgyM1YxMlpNOSAxNUgyM0MyMy41IDE1IDI0IDE1LjQgMjQgMTZWMjJDMjQgMjIuNiAyMy42IDIzIDIzIDIzSDlDOC40IDIzIDggMjIuNiA4IDIyVjE2QzggMTUuNCA4LjQgMTUgOSAxNVpNMTQgMjBIMThDMTguNSAyMCAxOSAxOS41IDE5IDE5QzE5IDE4LjQgMTguNiAxOCAxOCAxOEgxNEMxMy40IDE4IDEzIDE4LjQgMTMgMTlDMTMgMTkuNiAxMy40IDIwIDE0IDIwWiIgZmlsbD0id2hpdGUiLz4mI3hhOzwvc3ZnPg==;fontFamily=Helvetica;fontSize=14;fontStyle=1" parent="FpKIkP3KMFi05tkmSjkH-10" vertex="1">
          <mxGeometry x="45" y="40" width="90" height="90" as="geometry" />
        </mxCell>
        <mxCell id="vrlXvW0k0yc2Gl-SN5Lx-28" value="" style="rounded=1;whiteSpace=wrap;html=1;shadow=0;glass=0;sketch=0;fontSize=16;arcSize=10;absoluteArcSize=1;fillColor=none;strokeColor=#5282ff;strokeWidth=3;" parent="1" vertex="1">
          <mxGeometry x="640" y="400" width="380" height="190" as="geometry" />
        </mxCell>
        <mxCell id="vrlXvW0k0yc2Gl-SN5Lx-30" value="TF state for Prod" style="shape=image;verticalLabelPosition=bottom;verticalAlign=top;imageAspect=0;aspect=fixed;image=data:image/svg+xml,PHN2ZyB4bWxucz0iaHR0cDovL3d3dy53My5vcmcvMjAwMC9zdmciIHdpZHRoPSIzMiIgaGVpZ2h0PSIzMiIgdmlld0JveD0iMCAwIDMyIDMyIiBmaWxsPSJub25lIj4mI3hhOzxwYXRoIGQ9Ik0wIDE2QzAgNy4xNjM0NCA3LjE2MzQ0IDAgMTYgMFYwQzI0LjgzNjYgMCAzMiA3LjE2MzQ0IDMyIDE2VjE2QzMyIDI0LjgzNjYgMjQuODM2NiAzMiAxNiAzMlYzMkM3LjE2MzQ0IDMyIDAgMjQuODM2NiAwIDE2VjE2WiIgZmlsbD0iIzUyODJGRiIvPiYjeGE7PHBhdGggZmlsbC1ydWxlPSJldmVub2RkIiBjbGlwLXJ1bGU9ImV2ZW5vZGQiIGQ9Ik0yMiA4QzIyIDcuNCAyMS42IDcgMjEgN0gxMUMxMC40IDcgMTAgNy40IDEwIDhWMTBIMjJWOFpNMjMgMTJDMjMgMTEuNCAyMi42IDExIDIyIDExSDEwQzkuNCAxMSA5IDExLjQgOSAxMlYxNEgyM1YxMlpNOSAxNUgyM0MyMy41IDE1IDI0IDE1LjQgMjQgMTZWMjJDMjQgMjIuNiAyMy42IDIzIDIzIDIzSDlDOC40IDIzIDggMjIuNiA4IDIyVjE2QzggMTUuNCA4LjQgMTUgOSAxNVpNMTQgMjBIMThDMTguNSAyMCAxOSAxOS41IDE5IDE5QzE5IDE4LjQgMTguNiAxOCAxOCAxOEgxNEMxMy40IDE4IDEzIDE4LjQgMTMgMTlDMTMgMTkuNiAxMy40IDIwIDE0IDIwWiIgZmlsbD0id2hpdGUiLz4mI3hhOzwvc3ZnPg==;fontFamily=Helvetica;fontSize=14;fontStyle=1" parent="1" vertex="1">
          <mxGeometry x="660" y="450" width="90" height="90" as="geometry" />
        </mxCell>
        <mxCell id="vrlXvW0k0yc2Gl-SN5Lx-42" value="SubnetÂ &#xa;10.128.10.0/24" style="shape=image;verticalLabelPosition=bottom;verticalAlign=top;imageAspect=0;aspect=fixed;image=data:image/svg+xml,PHN2ZyB4bWxucz0iaHR0cDovL3d3dy53My5vcmcvMjAwMC9zdmciIHdpZHRoPSIzMiIgaGVpZ2h0PSIzMiIgdmlld0JveD0iMCAwIDMyIDMyIiBmaWxsPSJub25lIj4mI3hhOzxwYXRoIGQ9Ik0wIDE2QzAgNy4xNjM0NCA3LjE2MzQ0IDAgMTYgMFYwQzI0LjgzNjYgMCAzMiA3LjE2MzQ0IDMyIDE2VjE2QzMyIDI0LjgzNjYgMjQuODM2NiAzMiAxNiAzMlYzMkM3LjE2MzQ0IDMyIDAgMjQuODM2NiAwIDE2VjE2WiIgZmlsbD0iIzUyODJGRiIvPiYjeGE7PHBhdGggZD0iTTI0IDExQzI0IDkuOSAyMy4xIDkgMjIgOUMyMC45IDkgMjAgOS45IDIwIDExQzIwIDExLjcgMjAuNCAxMi40IDIxIDEyLjdWMTVIMTdWMTIuN0MxNy42IDEyLjMgMTggMTEuNyAxOCAxMUMxOCA5LjkgMTcuMSA5IDE2IDlDMTQuOSA5IDE0IDkuOSAxNCAxMUMxNCAxMS43IDE0LjQgMTIuNCAxNSAxMi43VjE1SDExVjEyLjdDMTEuNiAxMi4zIDEyIDExLjcgMTIgMTFDMTIgOS45IDExLjEgOSAxMCA5QzguOSA5IDggOS45IDggMTFDOCAxMS43IDguNCAxMi40IDkgMTIuN1YxNUM5IDE2LjEgOS45IDE3IDExIDE3SDEyVjE5LjNDMTEuNCAxOS43IDExIDIwLjMgMTEgMjFDMTEgMjIuMSAxMS45IDIzIDEzIDIzQzE0LjEgMjMgMTUgMjIuMSAxNSAyMUMxNSAyMC4zIDE0LjYgMTkuNiAxNCAxOS4zVjE3SDE4VjE5LjNDMTcuNCAxOS43IDE3IDIwLjMgMTcgMjFDMTcgMjIuMSAxNy45IDIzIDE5IDIzQzIwLjEgMjMgMjEgMjIuMSAyMSAyMUMyMSAyMC4zIDIwLjYgMTkuNiAyMCAxOS4zVjE3SDIxQzIyLjEgMTcgMjMgMTYuMSAyMyAxNVYxMi43QzIzLjYgMTIuNCAyNCAxMS43IDI0IDExWiIgZmlsbD0id2hpdGUiLz4mI3hhOzwvc3ZnPg==;strokeWidth=3;fontSize=15;fontStyle=1" parent="1" vertex="1">
          <mxGeometry x="780" y="450" width="90" height="90" as="geometry" />
        </mxCell>
        <mxCell id="FpKIkP3KMFi05tkmSjkH-5" value="Kubernetes &#xa;Cluster" style="shape=image;verticalLabelPosition=bottom;verticalAlign=top;imageAspect=0;aspect=fixed;image=data:image/svg+xml,PHN2ZyB4bWxucz0iaHR0cDovL3d3dy53My5vcmcvMjAwMC9zdmciIHdpZHRoPSIzMiIgaGVpZ2h0PSIzMiIgdmlld0JveD0iMCAwIDMyIDMyIiBmaWxsPSJub25lIj4mI3hhOzxwYXRoIGQ9Ik0wIDE2QzAgNy4xNjM0NCA3LjE2MzQ0IDAgMTYgMFYwQzI0LjgzNjYgMCAzMiA3LjE2MzQ0IDMyIDE2VjE2QzMyIDI0LjgzNjYgMjQuODM2NiAzMiAxNiAzMlYzMkM3LjE2MzQ0IDMyIDAgMjQuODM2NiAwIDE2VjE2WiIgZmlsbD0iIzUyODJGRiIvPiYjeGE7PHBhdGggZD0iTTExLjk5NSAyNEw3LjAwMDk4IDE3LjczOEw4Ljc4MTk4IDkuOTI3TDE2IDYuNDUzTDIzLjIxOCA5LjkyOEwyNC45OTkgMTcuNzM5TDIwLjAwNSAyNEgxMS45OTVaTTIwIDEzLjE5NkwxNS45OTkgMTAuODk5TDEyIDEzLjE5NlYxOC4xTDE2IDIwLjQwMUwyMCAxOC4xVjEzLjE5NlpNMTguNzggMTMuODk2SDE4Ljc4N0wxNiAxNS40OTlMMTMuMjE0IDEzLjg5NUgxMy4yMTlMMTUuOTk5IDEyLjI5OUwxOC43OCAxMy44OTZaIiBmaWxsPSJ3aGl0ZSIvPiYjeGE7PC9zdmc+;dashed=1;strokeWidth=3;fontSize=15;fontColor=#000000;fontStyle=1" vertex="1" parent="1">
          <mxGeometry x="900" y="450" width="90" height="90" as="geometry" />
        </mxCell>
        <mxCell id="FpKIkP3KMFi05tkmSjkH-7" value="&lt;font style=&quot;font-size: 16px;&quot;&gt;prod-folder&lt;br&gt;&lt;br&gt;&lt;/font&gt;" style="text;strokeColor=none;align=center;fillColor=none;html=1;verticalAlign=middle;whiteSpace=wrap;rounded=0;fontFamily=Helvetica;fontStyle=1;fontSize=20;" vertex="1" parent="1">
          <mxGeometry x="750" y="426" width="145.4" height="10" as="geometry" />
        </mxCell>
        <mxCell id="FpKIkP3KMFi05tkmSjkH-16" value="" style="endArrow=block;html=1;strokeWidth=3;arcSize=8;endFill=1;endSize=3;startSize=3;strokeColor=#313538;rounded=0;fontFamily=Helvetica;entryX=0.5;entryY=0;entryDx=0;entryDy=0;" edge="1" parent="1" target="vrlXvW0k0yc2Gl-SN5Lx-10">
          <mxGeometry width="50" height="50" relative="1" as="geometry">
            <mxPoint x="200" y="344" as="sourcePoint" />
            <mxPoint x="200" y="394" as="targetPoint" />
          </mxGeometry>
        </mxCell>
        <mxCell id="FpKIkP3KMFi05tkmSjkH-18" value="" style="endArrow=block;html=1;strokeWidth=3;arcSize=8;endFill=1;endSize=3;startSize=3;strokeColor=#313538;rounded=0;fontFamily=Helvetica;" edge="1" parent="1">
          <mxGeometry width="50" height="50" relative="1" as="geometry">
            <mxPoint x="580" y="490" as="sourcePoint" />
            <mxPoint x="640" y="490" as="targetPoint" />
          </mxGeometry>
        </mxCell>
        <mxCell id="FpKIkP3KMFi05tkmSjkH-19" value="" style="endArrow=block;html=1;strokeWidth=3;arcSize=8;endFill=1;endSize=3;startSize=3;strokeColor=#313538;rounded=0;fontFamily=Helvetica;" edge="1" parent="1">
          <mxGeometry width="50" height="50" relative="1" as="geometry">
            <mxPoint x="489.5" y="397" as="sourcePoint" />
            <mxPoint x="489.79999999999995" y="344" as="targetPoint" />
          </mxGeometry>
        </mxCell>
      </root>
    </mxGraphModel>
  </diagram>
</mxfile>
